<svg width="119" height="32" viewBox="0 0 119 32" fill="none" xmlns="http://www.w3.org/2000/svg">
<path fill-rule="evenodd" clip-rule="evenodd" d="M17.4166 31.643C17.3601 28.2526 17.1858 25.6733 19.7083 24.1937C22.2472 22.7046 24.4231 24.3044 27.4015 21.4235C29.016 19.8618 30.2737 16.5594 29.1162 13.4827C28.0534 10.6582 26.0688 9.58757 23.3764 8.76499C21.9795 0.720761 10.2081 0.694202 8.84311 8.75944C6.19354 9.60657 4.07722 10.6516 3.01695 13.7215C0.880295 19.9074 7.52529 25.8181 13.4387 22.6644C15.9058 21.3486 17.18 19.2798 17.4505 15.7203C18.7478 16.3881 19.5263 17.3911 22.1832 17.383L22.1827 14.8704C20.6928 14.7108 19.6365 14.2433 18.8278 13.4733C17.4043 12.1179 17.6047 10.7201 17.2574 10.0836L14.9685 10.0778C14.839 10.326 14.9151 10.1548 14.8258 10.4839C14.7787 10.6576 14.7481 10.8544 14.7091 11.0352C14.6311 11.3974 14.5762 11.5988 14.4492 11.9028C13.7007 13.6936 12.1637 14.6054 10.055 14.8616L10.0325 17.3691C12.5188 17.4517 13.3094 16.5105 14.7794 15.7099C14.9597 20.6667 9.27976 22.6552 6.33617 19.255C4.32562 16.9326 5.06598 13.1534 7.95423 11.7866C9.30725 11.1462 10.1563 11.5682 11.2819 11.2112C11.3272 9.24151 11.3701 8.19736 12.4464 6.96316C15.1661 3.8447 21.0302 4.55884 20.9364 11.2111C21.8157 11.4828 25.9621 10.9415 26.9019 15.0372C27.5605 17.9068 25.5684 20.3734 23.2284 20.8317C20.9867 21.2708 18.8141 20.7369 16.3495 23.7832C14.5557 26.0006 14.7768 28.4361 14.7997 31.643H12.2399C12.2994 29.4005 12.6129 26.7599 10.6433 26.2342C9.04421 25.8074 7.50408 26.3838 4.72868 24.6284C-1.99646 20.3745 -1.15026 11.1073 4.75677 7.60806C6.596 6.51856 6.40835 7.17242 6.94227 6.03334C7.87496 4.04306 8.76872 3.01865 10.3016 1.8775C15.238 -1.79775 22.6845 0.11841 25.2336 5.91875C25.5605 6.66259 25.354 6.58927 26.0476 6.90409C34.1361 10.5753 33.933 20.5325 27.5925 24.5628C24.7565 26.3655 23.5853 25.7699 21.715 26.199C19.634 26.6764 19.9059 29.3884 19.9899 31.643H17.4166Z" fill="#43BA00"/>
<path d="M38.3783 31.9219C37.8581 31.9219 37.4592 31.7659 37.1817 31.4537C36.9042 31.1415 36.7654 30.7079 36.7654 30.1529V20.6055C36.7654 20.0331 36.9042 19.5996 37.1817 19.3047C37.4592 18.9925 37.8581 18.8365 38.3783 18.8365C38.8986 18.8365 39.2975 18.9925 39.575 19.3047C39.8699 19.5996 40.0173 20.0331 40.0173 20.6055V30.1529C40.0173 30.7079 39.8785 31.1415 39.601 31.4537C39.3236 31.7659 38.916 31.9219 38.3783 31.9219ZM38.3783 16.4171C37.7713 16.4171 37.2944 16.2697 36.9475 15.9748C36.618 15.6626 36.4532 15.2377 36.4532 14.7001C36.4532 14.1451 36.618 13.7202 36.9475 13.4254C37.2944 13.1305 37.7713 12.9831 38.3783 12.9831C39.0027 12.9831 39.4796 13.1305 39.8092 13.4254C40.1387 13.7202 40.3034 14.1451 40.3034 14.7001C40.3034 15.2377 40.1387 15.6626 39.8092 15.9748C39.4796 16.2697 39.0027 16.4171 38.3783 16.4171Z" fill="#011627"/>
<path d="M44.3549 31.948C43.8346 31.948 43.4357 31.8092 43.1582 31.5317C42.8807 31.2369 42.7419 30.8207 42.7419 30.283V20.4494C42.7419 19.9117 42.8807 19.5042 43.1582 19.2267C43.4357 18.9492 43.8259 18.8105 44.3289 18.8105C44.8318 18.8105 45.222 18.9492 45.4995 19.2267C45.777 19.5042 45.9158 19.9117 45.9158 20.4494V22.2184L45.6296 21.568C46.0111 20.6488 46.6008 19.9551 47.3986 19.4868C48.2137 19.0012 49.1329 18.7584 50.1562 18.7584C51.1794 18.7584 52.0206 18.9492 52.6796 19.3307C53.3387 19.7123 53.833 20.2933 54.1625 21.0737C54.492 21.8368 54.6568 22.8081 54.6568 23.9874V30.283C54.6568 30.8207 54.518 31.2369 54.2405 31.5317C53.963 31.8092 53.5641 31.948 53.0438 31.948C52.5235 31.948 52.116 31.8092 51.8211 31.5317C51.5436 31.2369 51.4049 30.8207 51.4049 30.283V24.1435C51.4049 23.1549 51.2141 22.4352 50.8326 21.9843C50.4684 21.5333 49.896 21.3079 49.1156 21.3079C48.1617 21.3079 47.3986 21.6114 46.8263 22.2184C46.2713 22.8081 45.9938 23.5972 45.9938 24.5858V30.283C45.9938 31.393 45.4475 31.948 44.3549 31.948Z" fill="#011627"/>
<path d="M62.4806 31.948C62.047 31.948 61.6654 31.8352 61.3359 31.6098C61.0237 31.3843 60.7636 31.0374 60.5555 30.5692L56.4191 20.9697C56.263 20.5881 56.2023 20.2326 56.237 19.9031C56.289 19.5736 56.4451 19.3134 56.7053 19.1226C56.9828 18.9145 57.3556 18.8105 57.8239 18.8105C58.2228 18.8105 58.5437 18.9058 58.7865 19.0966C59.0293 19.2701 59.2461 19.6082 59.4368 20.1112L62.9488 28.8782H62.1684L65.7845 20.0852C65.9752 19.5996 66.192 19.2701 66.4348 19.0966C66.695 18.9058 67.0418 18.8105 67.4754 18.8105C67.857 18.8105 68.1605 18.9145 68.3859 19.1226C68.6114 19.3134 68.7502 19.5736 68.8022 19.9031C68.8542 20.2153 68.7935 20.5621 68.6201 20.9437L64.4057 30.5692C64.2149 31.0374 63.9547 31.3843 63.6252 31.6098C63.313 31.8352 62.9315 31.948 62.4806 31.948Z" fill="#011627"/>
<path d="M76.4437 32C75.0042 32 73.7641 31.7312 72.7235 31.1935C71.6829 30.6559 70.8765 29.8928 70.3042 28.9042C69.7492 27.9157 69.4717 26.745 69.4717 25.3922C69.4717 24.0741 69.7405 22.9208 70.2781 21.9322C70.8331 20.9437 71.5876 20.1719 72.5414 19.6169C73.5127 19.0446 74.614 18.7584 75.8453 18.7584C76.7472 18.7584 77.5536 18.9058 78.2647 19.2007C78.9931 19.4955 79.6088 19.9204 80.1118 20.4754C80.6321 21.0304 81.0223 21.7068 81.2824 22.5046C81.5599 23.285 81.6987 24.1695 81.6987 25.1581C81.6987 25.4703 81.5859 25.7131 81.3605 25.8865C81.1524 26.0426 80.8489 26.1206 80.45 26.1206H72.0992V24.2476H79.4094L78.9931 24.6378C78.9931 23.84 78.8717 23.1723 78.6289 22.6346C78.4035 22.097 78.0653 21.6894 77.6143 21.4119C77.1808 21.1171 76.6344 20.9697 75.9754 20.9697C75.247 20.9697 74.6226 21.1431 74.1023 21.49C73.5994 21.8195 73.2092 22.2964 72.9317 22.9208C72.6715 23.5278 72.5414 24.2562 72.5414 25.1061V25.2882C72.5414 26.7103 72.871 27.7769 73.53 28.488C74.2064 29.1817 75.195 29.5286 76.4957 29.5286C76.9466 29.5286 77.4496 29.4766 78.0046 29.3725C78.5769 29.2511 79.1145 29.0516 79.6175 28.7742C79.9817 28.566 80.3025 28.4793 80.58 28.514C80.8575 28.5313 81.0743 28.6267 81.2304 28.8002C81.4038 28.9736 81.5079 29.1904 81.5426 29.4505C81.5773 29.6933 81.5252 29.9448 81.3865 30.205C81.2651 30.4651 81.0483 30.6906 80.7361 30.8814C80.1291 31.2629 79.4267 31.5491 78.6289 31.7398C77.8485 31.9133 77.1201 32 76.4437 32Z" fill="#011627"/>
<path d="M87.5452 32C86.626 32 85.8022 31.8266 85.0738 31.4797C84.3627 31.1155 83.7991 30.6299 83.3828 30.0229C82.9839 29.4159 82.7845 28.7308 82.7845 27.9677C82.7845 27.0312 83.0273 26.2941 83.5129 25.7564C83.9985 25.2014 84.7876 24.8025 85.8803 24.5597C86.9729 24.3169 88.4384 24.1955 90.2768 24.1955H91.5775V26.0686H90.3028C89.2275 26.0686 88.369 26.1206 87.7273 26.2247C87.0856 26.3288 86.626 26.5109 86.3485 26.771C86.0884 27.0138 85.9583 27.3607 85.9583 27.8116C85.9583 28.3839 86.1577 28.8522 86.5566 29.2164C86.9555 29.5806 87.5105 29.7627 88.2216 29.7627C88.7939 29.7627 89.2969 29.6326 89.7305 29.3725C90.1814 29.095 90.5369 28.7221 90.7971 28.2539C91.0572 27.7856 91.1873 27.2479 91.1873 26.6409V23.6492C91.1873 22.7821 90.9965 22.1577 90.615 21.7761C90.2334 21.3946 89.5917 21.2038 88.6899 21.2038C88.1869 21.2038 87.6406 21.2645 87.0509 21.3859C86.4786 21.5073 85.8716 21.7154 85.2299 22.0103C84.9004 22.1664 84.6055 22.2097 84.3454 22.1404C84.1026 22.071 83.9118 21.9322 83.7731 21.7241C83.6343 21.4987 83.5649 21.2559 83.5649 20.9957C83.5649 20.7356 83.6343 20.4841 83.7731 20.2413C83.9118 19.9811 84.1459 19.7903 84.4755 19.6689C85.2732 19.3394 86.0363 19.1053 86.7648 18.9665C87.5105 18.8278 88.1869 18.7584 88.7939 18.7584C90.0426 18.7584 91.0659 18.9492 91.8637 19.3307C92.6788 19.7123 93.2858 20.2933 93.6847 21.0737C94.0836 21.8368 94.2831 22.8254 94.2831 24.0394V30.283C94.2831 30.8207 94.153 31.2369 93.8928 31.5317C93.6327 31.8092 93.2598 31.948 92.7742 31.948C92.2886 31.948 91.907 31.8092 91.6295 31.5317C91.3694 31.2369 91.2393 30.8207 91.2393 30.283V29.0343H91.4474C91.326 29.6413 91.0832 30.1703 90.719 30.6212C90.3722 31.0548 89.9299 31.393 89.3923 31.6358C88.8546 31.8786 88.2389 32 87.5452 32Z" fill="#011627"/>
<path d="M98.4387 31.948C97.9011 31.948 97.4848 31.8092 97.19 31.5317C96.9125 31.2369 96.7737 30.8207 96.7737 30.283V20.4494C96.7737 19.9118 96.9125 19.5042 97.19 19.2267C97.4675 18.9492 97.8577 18.8105 98.3606 18.8105C98.8636 18.8105 99.2538 18.9492 99.5313 19.2267C99.8088 19.5042 99.9476 19.9118 99.9476 20.4494V22.0883H99.6874C99.9302 21.0477 100.407 20.2586 101.118 19.721C101.829 19.1833 102.775 18.8625 103.954 18.7584C104.318 18.7237 104.604 18.8191 104.812 19.0446C105.038 19.2527 105.168 19.5822 105.203 20.0332C105.237 20.4667 105.133 20.8223 104.89 21.0998C104.665 21.3599 104.318 21.516 103.85 21.568L103.277 21.6201C102.22 21.7241 101.422 22.0537 100.884 22.6086C100.346 23.1463 100.078 23.9094 100.078 24.8979V30.283C100.078 30.8207 99.9389 31.2369 99.6614 31.5317C99.3839 31.8092 98.9763 31.948 98.4387 31.948Z" fill="#011627"/>
<path d="M107.719 31.948C107.199 31.948 106.8 31.8092 106.522 31.5317C106.245 31.2369 106.106 30.8207 106.106 30.283V20.4494C106.106 19.9117 106.245 19.5042 106.522 19.2267C106.8 18.9492 107.19 18.8105 107.693 18.8105C108.196 18.8105 108.586 18.9492 108.864 19.2267C109.141 19.5042 109.28 19.9117 109.28 20.4494V22.2184L108.994 21.568C109.375 20.6488 109.965 19.9551 110.763 19.4868C111.578 19.0012 112.497 18.7584 113.52 18.7584C114.544 18.7584 115.385 18.9492 116.044 19.3307C116.703 19.7123 117.197 20.2933 117.527 21.0737C117.856 21.8368 118.021 22.8081 118.021 23.9874V30.283C118.021 30.8207 117.882 31.2369 117.605 31.5317C117.327 31.8092 116.928 31.948 116.408 31.948C115.888 31.948 115.48 31.8092 115.185 31.5317C114.908 31.2369 114.769 30.8207 114.769 30.283V24.1435C114.769 23.1549 114.578 22.4352 114.197 21.9843C113.832 21.5333 113.26 21.3079 112.48 21.3079C111.526 21.3079 110.763 21.6114 110.19 22.2184C109.635 22.8081 109.358 23.5972 109.358 24.5858V30.283C109.358 31.393 108.812 31.948 107.719 31.948Z" fill="#011627"/>
</svg>
