<svg 
  width="24" 
  height="24" 
  viewBox="0 0 24 24" 
  fill="none"
  xmlns="http://www.w3.org/2000/svg"
>
  <path
    d="M10.4484 8.75159C10.2221 8.533 9.91894 8.41205 9.60431 8.41478C9.28967 8.41752 8.9887 8.54372 8.76621 8.76621C8.54372 8.9887 8.41751 9.28968 8.41478 9.60431C8.41205 9.91895 8.533 10.2221 8.75159 10.4484L11.1516 12.8484C11.3766 13.0734 11.6818 13.1997 12 13.1997C12.3182 13.1997 12.6234 13.0734 12.8484 12.8484L15.2484 10.4484C15.467 10.2221 15.5879 9.91895 15.5852 9.60431C15.5825 9.28968 15.4563 8.9887 15.2338 8.76621C15.0113 8.54372 14.7103 8.41752 14.3957 8.41478C14.081 8.41205 13.7779 8.533 13.5516 8.75159L13.2 9.10319V3.59999C13.2 3.28173 13.0736 2.97651 12.8485 2.75147C12.6235 2.52642 12.3182 2.39999 12 2.39999C11.6817 2.39999 11.3765 2.52642 11.1515 2.75147C10.9264 2.97651 10.8 3.28173 10.8 3.59999V9.10319L10.4484 8.75159Z"
    fill="#9CA3AF" 
  />
  <path
    d="M3.59998 6.00001C3.59998 5.36349 3.85283 4.75304 4.30292 4.30295C4.75301 3.85286 5.36346 3.60001 5.99998 3.60001H7.19998C7.51824 3.60001 7.82346 3.72643 8.0485 3.95148C8.27355 4.17652 8.39998 4.48175 8.39998 4.80001C8.39998 5.11827 8.27355 5.42349 8.0485 5.64853C7.82346 5.87358 7.51824 6.00001 7.19998 6.00001H5.99998V14.4H8.39998L9.59998 16.8H14.4L15.6 14.4H18V6.00001H16.8C16.4817 6.00001 16.1765 5.87358 15.9514 5.64853C15.7264 5.42349 15.6 5.11827 15.6 4.80001C15.6 4.48175 15.7264 4.17652 15.9514 3.95148C16.1765 3.72643 16.4817 3.60001 16.8 3.60001H18C18.6365 3.60001 19.2469 3.85286 19.697 4.30295C20.1471 4.75304 20.4 5.36349 20.4 6.00001V18C20.4 18.6365 20.1471 19.247 19.697 19.6971C19.2469 20.1471 18.6365 20.4 18 20.4H5.99998C5.36346 20.4 4.75301 20.1471 4.30292 19.6971C3.85283 19.247 3.59998 18.6365 3.59998 18V6.00001Z"
    fill="#9CA3AF" 
  />
</svg>