<svg width="18" height="19" viewBox="0 0 18 19" fill="none" xmlns="http://www.w3.org/2000/svg">
  <path fill-rule="evenodd" clip-rule="evenodd" d="M8.10001 2.3C7.93292 2.30009 7.76915 2.34669 7.62704 2.4346C7.48493 2.5225 7.3701 2.64823 7.29541 2.7977L6.64381 4.1H3.60001C3.36132 4.1 3.1324 4.19482 2.96362 4.3636C2.79483 4.53239 2.70001 4.7613 2.70001 5C2.70001 5.23869 2.79483 5.46761 2.96362 5.6364C3.1324 5.80518 3.36132 5.9 3.60001 5.9V14.9C3.60001 15.3774 3.78965 15.8352 4.12722 16.1728C4.46479 16.5104 4.92262 16.7 5.40001 16.7H12.6C13.0774 16.7 13.5352 16.5104 13.8728 16.1728C14.2104 15.8352 14.4 15.3774 14.4 14.9V5.9C14.6387 5.9 14.8676 5.80518 15.0364 5.6364C15.2052 5.46761 15.3 5.23869 15.3 5C15.3 4.7613 15.2052 4.53239 15.0364 4.3636C14.8676 4.19482 14.6387 4.1 14.4 4.1H11.3562L10.7046 2.7977C10.6299 2.64823 10.5151 2.5225 10.373 2.4346C10.2309 2.34669 10.0671 2.30009 9.90001 2.3H8.10001ZM6.30001 7.7C6.30001 7.4613 6.39483 7.23239 6.56362 7.0636C6.7324 6.89482 6.96132 6.8 7.20001 6.8C7.43871 6.8 7.66763 6.89482 7.83641 7.0636C8.00519 7.23239 8.10001 7.4613 8.10001 7.7V13.1C8.10001 13.3387 8.00519 13.5676 7.83641 13.7364C7.66763 13.9052 7.43871 14 7.20001 14C6.96132 14 6.7324 13.9052 6.56362 13.7364C6.39483 13.5676 6.30001 13.3387 6.30001 13.1V7.7ZM10.8 6.8C10.5613 6.8 10.3324 6.89482 10.1636 7.0636C9.99483 7.23239 9.90001 7.4613 9.90001 7.7V13.1C9.90001 13.3387 9.99483 13.5676 10.1636 13.7364C10.3324 13.9052 10.5613 14 10.8 14C11.0387 14 11.2676 13.9052 11.4364 13.7364C11.6052 13.5676 11.7 13.3387 11.7 13.1V7.7C11.7 7.4613 11.6052 7.23239 11.4364 7.0636C11.2676 6.89482 11.0387 6.8 10.8 6.8Z" fill="#E02424"/>
</svg>
