<svg width="18" height="19" viewBox="0 0 18 19" fill="none" xmlns="http://www.w3.org/2000/svg">
    <path d="M15.6726 2.8274C15.335 2.48995 14.8773 2.30038 14.4 2.30038C13.9227 2.30038 13.4649 2.48995 13.1274 2.8274L6.29999 9.6548V12.2H8.84519L15.6726 5.3726C16.01 5.03505 16.1996 4.5773 16.1996 4.1C16.1996 3.6227 16.01 3.16495 15.6726 2.8274Z" fill="#6B7280"/>
    <path fill-rule="evenodd" clip-rule="evenodd" d="M1.79999 5.9C1.79999 5.42261 1.98963 4.96477 2.3272 4.62721C2.66476 4.28964 3.1226 4.1 3.59999 4.1H7.19999C7.43868 4.1 7.6676 4.19482 7.83638 4.3636C8.00517 4.53239 8.09999 4.7613 8.09999 5C8.09999 5.23869 8.00517 5.46761 7.83638 5.63639C7.6676 5.80518 7.43868 5.9 7.19999 5.9H3.59999V14.9H12.6V11.3C12.6 11.0613 12.6948 10.8324 12.8636 10.6636C13.0324 10.4948 13.2613 10.4 13.5 10.4C13.7387 10.4 13.9676 10.4948 14.1364 10.6636C14.3052 10.8324 14.4 11.0613 14.4 11.3V14.9C14.4 15.3774 14.2103 15.8352 13.8728 16.1728C13.5352 16.5104 13.0774 16.7 12.6 16.7H3.59999C3.1226 16.7 2.66476 16.5104 2.3272 16.1728C1.98963 15.8352 1.79999 15.3774 1.79999 14.9V5.9Z" fill="#6B7280"/>
</svg>
