<svg width="59" height="56" viewBox="0 0 59 56" fill="none" xmlns="http://www.w3.org/2000/svg">
    <path d="M22.3479 11.6667H17.5798C16.3152 11.6667 15.1024 12.1583 14.2082 13.0335C13.314 13.9087 12.8116 15.0957 12.8116 16.3333V44.3333C12.8116 45.571 13.314 46.758 14.2082 47.6332C15.1024 48.5083 16.3152 49 17.5798 49H41.4203C42.6849 49 43.8977 48.5083 44.7919 47.6332C45.6861 46.758 46.1885 45.571 46.1885 44.3333V16.3333C46.1885 15.0957 45.6861 13.9087 44.7919 13.0335C43.8977 12.1583 42.6849 11.6667 41.4203 11.6667H36.6522M22.3479 11.6667C22.3479 12.9043 22.8502 14.0913 23.7444 14.9665C24.6386 15.8417 25.8514 16.3333 27.116 16.3333H31.8841C33.1487 16.3333 34.3615 15.8417 35.2557 14.9665C36.1499 14.0913 36.6522 12.9043 36.6522 11.6667M22.3479 11.6667C22.3479 10.429 22.8502 9.242 23.7444 8.36683C24.6386 7.49167 25.8514 7 27.116 7H31.8841C33.1487 7 34.3615 7.49167 35.2557 8.36683C36.1499 9.242 36.6522 10.429 36.6522 11.6667" stroke="#0E9F6E" stroke-width="2" stroke-linecap="round" stroke-linejoin="round"/>
    <path d="M25.2391 26.7822L33.7609 34.0866M25.2391 34.0866L33.7609 26.7822L25.2391 34.0866Z" stroke="#0E9F6E" stroke-width="2" stroke-linecap="round" stroke-linejoin="round"/>
    </svg>