<svg width="92" height="91" viewBox="0 0 92 91" fill="none" xmlns="http://www.w3.org/2000/svg">
<path d="M83.6584 32.0954C82.5286 30.9562 81.892 29.4186 81.8858 27.8142V22.4076C81.8814 19.1208 80.5734 15.97 78.2489 13.6463C75.9244 11.3225 72.7731 10.0157 69.4863 10.0123H64.0882C63.2932 10.0144 62.5057 9.85923 61.771 9.55574C61.0362 9.25226 60.3687 8.80645 59.807 8.24397L55.1957 3.62851C52.8689 1.30762 49.7166 0.0042572 46.4302 0.0042572C43.1437 0.0042572 39.9914 1.30762 37.6646 3.62851L33.0534 8.24397C32.492 8.80721 31.8247 9.2538 31.0899 9.55802C30.3551 9.86224 29.5674 10.0181 28.7722 10.0165H23.3698C20.083 10.0199 16.9317 11.3268 14.6072 13.6505C12.2827 15.9742 10.9748 19.125 10.9703 22.4118V27.8142C10.966 29.4169 10.3307 30.9534 9.20195 32.0912L4.58226 36.7066C2.26137 39.0335 0.958008 42.1858 0.958008 45.4722C0.958008 48.7586 2.26137 51.9109 4.58226 54.2377L9.20195 58.849C10.3317 59.9881 10.9684 61.5258 10.9745 63.1302V68.5368C10.979 71.8236 12.2869 74.9744 14.6115 77.2981C16.936 79.6218 20.0873 80.9287 23.3741 80.9321H28.7722C29.5674 80.9305 30.3551 81.0864 31.0899 81.3906C31.8247 81.6948 32.492 82.1414 33.0534 82.7047L37.6646 87.3201C39.9909 89.642 43.1434 90.9461 46.4302 90.9461C49.717 90.9461 52.8694 89.642 55.1957 87.3201L59.807 82.7047C60.3684 82.1414 61.0357 81.6948 61.7705 81.3906C62.5052 81.0864 63.2929 80.9305 64.0882 80.9321H69.4905C72.7773 80.9287 75.9286 79.6218 78.2531 77.2981C80.5776 74.9744 81.8856 71.8236 81.8901 68.5368V63.1302C81.8937 61.5266 82.5308 59.9893 83.6626 58.8532L88.2781 54.2377C90.599 51.9109 91.9023 48.7586 91.9023 45.4722C91.9023 42.1858 90.599 39.0335 88.2781 36.7066L83.6584 32.0954Z" fill="#0E9F6E"/>
<path d="M46.4317 74.0279C62.2026 74.0279 74.9875 61.243 74.9875 45.4721C74.9875 29.7012 62.2026 16.9164 46.4317 16.9164C30.6608 16.9164 17.876 29.7012 17.876 45.4721C17.876 61.243 30.6608 74.0279 46.4317 74.0279Z" fill="white"/>
<path d="M42.2012 57.1059C41.7844 57.107 41.3716 57.0252 40.9867 56.8654C40.6018 56.7057 40.2525 56.4711 39.959 56.1752L31.498 47.7143C30.9376 47.1128 30.6325 46.3173 30.647 45.4953C30.6615 44.6733 30.9945 43.889 31.5758 43.3077C32.1571 42.7264 32.9414 42.3934 33.7634 42.3789C34.5854 42.3644 35.3809 42.6695 35.9824 43.23L42.2012 49.4445L56.8809 34.769C57.4824 34.2085 58.2779 33.9034 59.0999 33.9179C59.9219 33.9324 60.7062 34.2654 61.2875 34.8467C61.8688 35.4281 62.2018 36.2123 62.2163 37.0343C62.2308 37.8563 61.9257 38.6518 61.3652 39.2533L44.4433 56.1752C44.1498 56.4711 43.8005 56.7057 43.4156 56.8654C43.0307 57.0252 42.6179 57.107 42.2012 57.1059Z" fill="black"/>
<path d="M46.4302 90.9456C44.8024 90.948 43.1901 90.6289 41.6859 90.0068C40.1817 89.3846 38.8152 88.4716 37.6646 87.3201L33.0492 82.7004C32.4888 82.1369 31.8223 81.6901 31.0881 81.3858C30.354 81.0816 29.5668 80.9259 28.7722 80.9278H23.3656C20.0792 80.9245 16.9283 79.6175 14.6045 77.2936C12.2807 74.9698 10.9736 71.8189 10.9703 68.5325V63.1302C10.9727 62.3358 10.8177 61.5488 10.5142 60.8147C10.2107 60.0806 9.76468 59.4139 9.20195 58.8532L4.58226 54.2377C2.26137 51.9109 0.958008 48.7586 0.958008 45.4722C0.958008 42.1857 2.26137 39.0334 4.58226 36.7066L9.20195 32.0912C9.76544 31.5308 10.2122 30.8643 10.5165 30.1301C10.8207 29.396 10.9764 28.6088 10.9745 27.8141V22.4076C10.9779 19.1212 12.2849 15.9703 14.6087 13.6465C16.9326 11.3226 20.0834 10.0156 23.3698 10.0123H28.7722C29.5665 10.0147 30.3535 9.85973 31.0877 9.5562C31.8218 9.25268 32.4885 8.80667 33.0492 8.24394L37.6646 3.62426C39.9914 1.30336 43.1437 0 46.4302 0C49.7166 0 52.8689 1.30336 55.1957 3.62426L59.8112 8.24394C60.3715 8.80743 61.0381 9.25423 61.7722 9.55848C62.5063 9.86274 63.2935 10.0184 64.0882 10.0165H69.4948C72.7812 10.0199 75.932 11.3269 78.2558 13.6507C80.5797 15.9746 81.8867 19.1254 81.8901 22.4118V27.8141C81.8876 28.6085 82.0426 29.3955 82.3461 30.1296C82.6497 30.8638 83.0957 31.5304 83.6584 32.0912L88.2739 36.7066C90.5947 39.0334 91.8981 42.1857 91.8981 45.4722C91.8981 48.7586 90.5947 51.9109 88.2739 54.2377L83.6584 58.8532C83.0949 59.4135 82.6481 60.0801 82.3439 60.8142C82.0396 61.5483 81.8839 62.3355 81.8858 63.1302V68.5367C81.8825 71.8232 80.5755 74.974 78.2516 77.2978C75.9278 79.6217 72.7769 80.9287 69.4905 80.9321H64.0882C63.2935 80.9301 62.5063 81.0858 61.7722 81.3901C61.0381 81.6943 60.3715 82.1411 59.8112 82.7046L55.1957 87.3201C54.0452 88.4716 52.6786 89.3846 51.1744 90.0068C49.6702 90.6289 48.058 90.948 46.4302 90.9456ZM23.3656 16.358C21.7615 16.3591 20.2234 16.9968 19.0891 18.1311C17.9549 19.2654 17.3171 20.8035 17.316 22.4076V27.8141C17.3219 29.4445 17.0036 31.0597 16.3798 32.5659C15.7559 34.0722 14.8389 35.4394 13.682 36.5882L9.0708 41.1994C7.93722 42.3358 7.30063 43.8755 7.30063 45.4806C7.30063 47.0858 7.93722 48.6254 9.0708 49.7619L13.682 54.3731C14.8379 55.5208 15.7543 56.8867 16.3782 58.3914C17.002 59.8961 17.3208 61.5098 17.316 63.1387V68.5452C17.3171 70.1493 17.9549 71.6874 19.0891 72.8217C20.2234 73.9559 21.7615 74.5937 23.3656 74.5948H28.7722C30.4009 74.591 32.0143 74.9102 33.5189 75.534C35.0234 76.1577 36.3894 77.0737 37.5377 78.2288L42.1489 82.84C43.2854 83.9736 44.825 84.6102 46.4302 84.6102C48.0353 84.6102 49.575 83.9736 50.7114 82.84L55.3226 78.2288C56.4709 77.0737 57.8369 76.1577 59.3415 75.534C60.8461 74.9102 62.4594 74.591 64.0882 74.5948H69.4948C71.0989 74.5937 72.6369 73.9559 73.7712 72.8217C74.9055 71.6874 75.5432 70.1493 75.5443 68.5452V63.1302C75.5396 61.5013 75.8584 59.8877 76.4822 58.3829C77.106 56.8782 78.0224 55.5124 79.1783 54.3646L83.7895 49.7534C84.9231 48.617 85.5597 47.0773 85.5597 45.4722C85.5597 43.867 84.9231 42.3274 83.7895 41.1909L79.1783 36.5882C78.0232 35.4399 77.1073 34.0739 76.4835 32.5693C75.8597 31.0647 75.5405 29.4514 75.5443 27.8226V22.4076C75.5432 20.8035 74.9055 19.2654 73.7712 18.1311C72.6369 16.9968 71.0989 16.3591 69.4948 16.358H64.0882C62.4579 16.3639 60.8426 16.0456 59.3364 15.4218C57.8301 14.7979 56.4629 13.8809 55.3142 12.724L50.703 8.11279C49.5665 6.97922 48.0269 6.34262 46.4217 6.34262C44.8166 6.34262 43.2769 6.97922 42.1405 8.11279L37.5462 12.724C36.3984 13.8799 35.0326 14.7963 33.5279 15.4201C32.0231 16.044 30.4095 16.3628 28.7806 16.358H23.3656Z" fill="black"/>
<path d="M46.4317 74.0279C40.7839 74.0279 35.263 72.3531 30.567 69.2154C25.871 66.0776 22.211 61.6178 20.0497 56.3999C17.8883 51.1821 17.3229 45.4405 18.4247 39.9012C19.5265 34.3619 22.2462 29.2738 26.2398 25.2802C30.2334 21.2866 35.3215 18.5669 40.8608 17.4651C46.4001 16.3632 52.1417 16.9287 57.3595 19.0901C62.5774 21.2514 67.0372 24.9114 70.175 29.6074C73.3127 34.3034 74.9875 39.8243 74.9875 45.4721C74.9785 53.0428 71.9671 60.3009 66.6138 65.6542C61.2605 71.0075 54.0024 74.0189 46.4317 74.0279ZM46.4317 23.2621C42.039 23.2621 37.7449 24.5647 34.0925 27.0052C30.4401 29.4456 27.5934 32.9144 25.9123 36.9727C24.2313 41.0311 23.7915 45.4968 24.6485 49.8051C25.5054 54.1134 27.6207 58.0709 30.7269 61.177C33.833 64.2831 37.7904 66.3984 42.0988 67.2554C46.4071 68.1124 50.8728 67.6725 54.9311 65.9915C58.9895 64.3105 62.4582 61.4638 64.8987 57.8114C67.3392 54.1589 68.6418 49.8649 68.6418 45.4721C68.635 39.5837 66.2929 33.9384 62.1292 29.7747C57.9654 25.611 52.3201 23.2688 46.4317 23.2621Z" fill="black"/>
</svg>
