<svg 
  fill="currentColor" 
  width="24" 
  height="24" 
  viewBox="0 0 24 24" 
  xmlns="http://www.w3.org/2000/svg"
>
  <path
    d="M10.8 2.39999C10.4817 2.39999 10.1765 2.52642 9.95145 2.75147C9.7264 2.97651 9.59998 3.28173 9.59998 3.59999C9.59998 3.91825 9.7264 4.22348 9.95145 4.44852C10.1765 4.67357 10.4817 4.79999 10.8 4.79999H13.2C13.5182 4.79999 13.8235 4.67357 14.0485 4.44852C14.2735 4.22348 14.4 3.91825 14.4 3.59999C14.4 3.28173 14.2735 2.97651 14.0485 2.75147C13.8235 2.52642 13.5182 2.39999 13.2 2.39999H10.8Z"
    fill="#9CA3AF" 
  />
  <path 
    fill-rule="evenodd" 
    clip-rule="evenodd"
    d="M4.79999 6.00001C4.79999 5.36349 5.05284 4.75304 5.50293 4.30295C5.95302 3.85286 6.56347 3.60001 7.19999 3.60001C7.19999 4.55479 7.57927 5.47046 8.2544 6.14559C8.92953 6.82072 9.84521 7.20001 10.8 7.20001H13.2C14.1548 7.20001 15.0704 6.82072 15.7456 6.14559C16.4207 5.47046 16.8 4.55479 16.8 3.60001C17.4365 3.60001 18.047 3.85286 18.497 4.30295C18.9471 4.75304 19.2 5.36349 19.2 6.00001V19.2C19.2 19.8365 18.9471 20.447 18.497 20.8971C18.047 21.3472 17.4365 21.6 16.8 21.6H7.19999C6.56347 21.6 5.95302 21.3472 5.50293 20.8971C5.05284 20.447 4.79999 19.8365 4.79999 19.2V6.00001ZM8.39999 10.8C8.08173 10.8 7.7765 10.9264 7.55146 11.1515C7.32642 11.3765 7.19999 11.6817 7.19999 12C7.19999 12.3183 7.32642 12.6235 7.55146 12.8485C7.7765 13.0736 8.08173 13.2 8.39999 13.2H8.41199C8.73025 13.2 9.03547 13.0736 9.26052 12.8485C9.48556 12.6235 9.61199 12.3183 9.61199 12C9.61199 11.6817 9.48556 11.3765 9.26052 11.1515C9.03547 10.9264 8.73025 10.8 8.41199 10.8H8.39999ZM12 10.8C11.6817 10.8 11.3765 10.9264 11.1515 11.1515C10.9264 11.3765 10.8 11.6817 10.8 12C10.8 12.3183 10.9264 12.6235 11.1515 12.8485C11.3765 13.0736 11.6817 13.2 12 13.2H15.6C15.9182 13.2 16.2235 13.0736 16.4485 12.8485C16.6736 12.6235 16.8 12.3183 16.8 12C16.8 11.6817 16.6736 11.3765 16.4485 11.1515C16.2235 10.9264 15.9182 10.8 15.6 10.8H12ZM8.39999 15.6C8.08173 15.6 7.7765 15.7264 7.55146 15.9515C7.32642 16.1765 7.19999 16.4817 7.19999 16.8C7.19999 17.1183 7.32642 17.4235 7.55146 17.6485C7.7765 17.8736 8.08173 18 8.39999 18H8.41199C8.73025 18 9.03547 17.8736 9.26052 17.6485C9.48556 17.4235 9.61199 17.1183 9.61199 16.8C9.61199 16.4817 9.48556 16.1765 9.26052 15.9515C9.03547 15.7264 8.73025 15.6 8.41199 15.6H8.39999ZM12 15.6C11.6817 15.6 11.3765 15.7264 11.1515 15.9515C10.9264 16.1765 10.8 16.4817 10.8 16.8C10.8 17.1183 10.9264 17.4235 11.1515 17.6485C11.3765 17.8736 11.6817 18 12 18H15.6C15.9182 18 16.2235 17.8736 16.4485 17.6485C16.6736 17.4235 16.8 17.1183 16.8 16.8C16.8 16.4817 16.6736 16.1765 16.4485 15.9515C16.2235 15.7264 15.9182 15.6 15.6 15.6H12Z"
    fill="#9CA3AF" 
  />
</svg>